<svg width="3803" height="575" viewBox="0 0 3803 575" fill="none" xmlns="http://www.w3.org/2000/svg">
<path d="M140.804 11.0013H11.2047V292.37H140.804V185.143H503.07V292.37H623.996V11.0013H503.07V108.789H140.804V11.0013Z" fill="white"/>
<path d="M140.804 11.0013H11.2047V292.37H140.804V185.143H503.07V292.37H623.996V11.0013H503.07V108.789H140.804V11.0013Z" fill="black" fill-opacity="0.2"/>
<path d="M140.804 11.0013H11.2047V292.37H140.804V185.143H503.07V292.37H623.996V11.0013H503.07V108.789H140.804V11.0013Z" fill="#DEF1F7"/>
<path d="M140.804 11.0013H11.2047V292.37H140.804V185.143H503.07V292.37H623.996V11.0013H503.07V108.789H140.804V11.0013Z" fill="#FBFCF6"/>
<path d="M1230.66 11.0013H691.857L694.408 292.799H1230.66V216.024H817.885V170.989H1159.74V134.103L817.885 132.388V91.6324H1230.66V11.0013Z" fill="white"/>
<path d="M1230.66 11.0013H691.857L694.408 292.799H1230.66V216.024H817.885V170.989H1159.74V134.103L817.885 132.388V91.6324H1230.66V11.0013Z" fill="black" fill-opacity="0.2"/>
<path d="M1230.66 11.0013H691.857L694.408 292.799H1230.66V216.024H817.885V170.989H1159.74V134.103L817.885 132.388V91.6324H1230.66V11.0013Z" fill="#DEF1F7"/>
<path d="M1230.66 11.0013H691.857L694.408 292.799H1230.66V216.024H817.885V170.989H1159.74V134.103L817.885 132.388V91.6324H1230.66V11.0013Z" fill="#FBFCF6"/>
<path d="M1836.31 11.0013H1299.55V292.799H1836.31V218.169H1423.02V168.845H1763.86V134.103H1423.02V89.9168H1836.31V11.0013Z" fill="white"/>
<path d="M1836.31 11.0013H1299.55V292.799H1836.31V218.169H1423.02V168.845H1763.86V134.103H1423.02V89.9168H1836.31V11.0013Z" fill="black" fill-opacity="0.2"/>
<path d="M1836.31 11.0013H1299.55V292.799H1836.31V218.169H1423.02V168.845H1763.86V134.103H1423.02V89.9168H1836.31V11.0013Z" fill="#DEF1F7"/>
<path d="M1836.31 11.0013H1299.55V292.799H1836.31V218.169H1423.02V168.845H1763.86V134.103H1423.02V89.9168H1836.31V11.0013Z" fill="#FBFCF6"/>
<path d="M2534.31 148.257H2252.15V191.148H2407.77C2327.16 254.626 2060.3 221.171 2037.34 191.148L2032.24 184.714C2017.92 162.193 2017.05 149.204 2025.61 125.525L2029.18 119.52C2108.78 45.3195 2393.49 75.343 2386.34 119.52H2534.31C2514.92 -40.8908 1907.04 -37.6625 1890.71 120.175V121.175C1886.21 143.175 1886.33 177.269 1899.58 207.804L1900.6 210.877C1972.03 331.4 2421.55 323.68 2453.18 210.877L2437.37 287.652H2534.31V148.257Z" fill="white"/>
<path d="M2534.31 148.257H2252.15V191.148H2407.77C2327.16 254.626 2060.3 221.171 2037.34 191.148L2032.24 184.714C2017.92 162.193 2017.05 149.204 2025.61 125.525L2029.18 119.52C2108.78 45.3195 2393.49 75.343 2386.34 119.52H2534.31C2514.92 -40.8908 1907.04 -37.6625 1890.71 120.175V121.175C1886.21 143.175 1886.33 177.269 1899.58 207.804L1900.6 210.877C1972.03 331.4 2421.55 323.68 2453.18 210.877L2437.37 287.652H2534.31V148.257Z" fill="black" fill-opacity="0.2"/>
<path d="M2534.31 148.257H2252.15V191.148H2407.77C2327.16 254.626 2060.3 221.171 2037.34 191.148L2032.24 184.714C2017.92 162.193 2017.05 149.204 2025.61 125.525L2029.18 119.52C2108.78 45.3195 2393.49 75.343 2386.34 119.52H2534.31C2514.92 -40.8908 1907.04 -37.6625 1890.71 120.175V121.175C1886.21 143.175 1886.33 177.269 1899.58 207.804L1900.6 210.877C1972.03 331.4 2421.55 323.68 2453.18 210.877L2437.37 287.652H2534.31V148.257Z" fill="#DEF1F7"/>
<path d="M2534.31 148.257H2252.15V191.148H2407.77C2327.16 254.626 2060.3 221.171 2037.34 191.148L2032.24 184.714C2017.92 162.193 2017.05 149.204 2025.61 125.525L2029.18 119.52C2108.78 45.3195 2393.49 75.343 2386.34 119.52H2534.31C2514.92 -40.8908 1907.04 -37.6625 1890.71 120.175V121.175C1886.21 143.175 1886.33 177.269 1899.58 207.804L1900.6 210.877C1972.03 331.4 2421.55 323.68 2453.18 210.877L2437.37 287.652H2534.31V148.257Z" fill="#FBFCF6"/>
<path d="M3140.98 11.0013H2607.27V287.652H3140.98V217.74H2733.81V167.129H3068.02V134.532H2733.81V86.4856H3140.98V11.0013Z" fill="white"/>
<path d="M3140.98 11.0013H2607.27V287.652H3140.98V217.74H2733.81V167.129H3068.02V134.532H2733.81V86.4856H3140.98V11.0013Z" fill="black" fill-opacity="0.2"/>
<path d="M3140.98 11.0013H2607.27V287.652H3140.98V217.74H2733.81V167.129H3068.02V134.532H2733.81V86.4856H3140.98V11.0013Z" fill="#DEF1F7"/>
<path d="M3140.98 11.0013H2607.27V287.652H3140.98V217.74H2733.81V167.129H3068.02V134.532H2733.81V86.4856H3140.98V11.0013Z" fill="#FBFCF6"/>
<path fill-rule="evenodd" clip-rule="evenodd" d="M3214.64 11.0013H3661.61H3670.79C3831.01 11.0014 3840.7 168.845 3721.82 178.281H3717.22V186.43H3721.82C3755.49 186.43 3790.7 199.297 3790.7 235.325V240.043V287.652H3661.61V240.043V233.181C3661.61 212.593 3643.75 204.444 3610.59 204.444H3601.4H3335.57V287.652H3214.64V11.0013ZM3335.57 86.4856V142.681H3640.18H3646.81C3685.59 142.681 3682.02 86.4856 3646.81 86.4856H3640.18H3335.57Z" fill="white"/>
<path fill-rule="evenodd" clip-rule="evenodd" d="M3214.64 11.0013H3661.61H3670.79C3831.01 11.0014 3840.7 168.845 3721.82 178.281H3717.22V186.43H3721.82C3755.49 186.43 3790.7 199.297 3790.7 235.325V240.043V287.652H3661.61V240.043V233.181C3661.61 212.593 3643.75 204.444 3610.59 204.444H3601.4H3335.57V287.652H3214.64V11.0013ZM3335.57 86.4856V142.681H3640.18H3646.81C3685.59 142.681 3682.02 86.4856 3646.81 86.4856H3640.18H3335.57Z" fill="black" fill-opacity="0.2"/>
<path fill-rule="evenodd" clip-rule="evenodd" d="M3214.64 11.0013H3661.61H3670.79C3831.01 11.0014 3840.7 168.845 3721.82 178.281H3717.22V186.43H3721.82C3755.49 186.43 3790.7 199.297 3790.7 235.325V240.043V287.652H3661.61V240.043V233.181C3661.61 212.593 3643.75 204.444 3610.59 204.444H3601.4H3335.57V287.652H3214.64V11.0013ZM3335.57 86.4856V142.681H3640.18H3646.81C3685.59 142.681 3682.02 86.4856 3646.81 86.4856H3640.18H3335.57Z" fill="#DEF1F7"/>
<path fill-rule="evenodd" clip-rule="evenodd" d="M3214.64 11.0013H3661.61H3670.79C3831.01 11.0014 3840.7 168.845 3721.82 178.281H3717.22V186.43H3721.82C3755.49 186.43 3790.7 199.297 3790.7 235.325V240.043V287.652H3661.61V240.043V233.181C3661.61 212.593 3643.75 204.444 3610.59 204.444H3601.4H3335.57V287.652H3214.64V11.0013ZM3335.57 86.4856V142.681H3640.18H3646.81C3685.59 142.681 3682.02 86.4856 3646.81 86.4856H3640.18H3335.57Z" fill="#FBFCF6"/>
<path d="M3661.61 11.0013H3214.64V287.652H3335.57V204.444H3601.4M3661.61 11.0013C3661.61 11.0013 3510.58 11.0011 3670.79 11.0013M3661.61 11.0013H3670.79M3601.4 204.444C3601.4 204.444 3577.42 204.444 3610.59 204.444M3601.4 204.444H3610.59M3661.61 240.043V287.652H3790.7V240.043M3661.61 240.043C3661.61 240.043 3661.61 253.768 3661.61 233.181M3661.61 240.043V233.181M3790.7 240.043C3790.7 240.043 3790.7 271.353 3790.7 235.325M3790.7 240.043V235.325M3610.59 204.444C3643.75 204.444 3661.61 212.593 3661.61 233.181M3790.7 235.325C3790.7 199.297 3755.49 186.43 3721.82 186.43H3717.22V178.281H3721.82C3840.7 168.845 3831.01 11.0014 3670.79 11.0013M11.2047 11.0013H140.804V108.789H503.07V11.0013H623.996V292.37H503.07V185.143H140.804V292.37H11.2047V11.0013ZM691.857 11.0013H1230.66V91.6324H817.885V132.388L1159.74 134.103V170.989H817.885V216.024H1230.66V292.799H694.408L691.857 11.0013ZM1299.55 11.0013H1836.31V89.9168H1423.02V134.103H1763.86V168.845H1423.02V218.169H1836.31V292.799H1299.55V11.0013ZM2252.15 148.257H2534.31V287.652H2437.37L2453.18 210.877C2421.55 323.68 1972.03 331.4 1900.6 210.877L1899.58 207.804C1886.33 177.269 1886.21 143.175 1890.71 121.175V120.175C1907.04 -37.6625 2514.92 -40.8908 2534.31 119.52H2386.34C2393.49 75.343 2108.78 45.3195 2029.18 119.52L2025.61 125.525C2017.05 149.204 2017.92 162.193 2032.24 184.714L2037.34 191.148C2060.3 221.171 2327.16 254.626 2407.77 191.148H2252.15V148.257ZM2607.27 11.0013H3140.98V86.4856H2733.81V134.532H3068.02V167.129H2733.81V217.74H3140.98V287.652H2607.27V11.0013ZM3335.57 142.681V86.4856H3640.18H3646.81C3682.02 86.4856 3685.59 142.681 3646.81 142.681H3640.18H3335.57Z" stroke="black"/>
<path d="M2547.54 539.937H2530.19V467.881H2547.54V539.937Z" fill="#1E1E1E"/>
<path d="M2547.54 539.937H2530.19V467.881H2547.54V539.937Z" fill="#FBFCF6"/>
<path d="M2527.13 443.862C2527.13 430.566 2549.07 431.424 2549.07 443.862V445.149C2549.07 445.193 2549.07 445.237 2549.06 445.281C2548.87 455.013 2527.13 454.969 2527.13 445.149V443.862Z" fill="#1E1E1E"/>
<path d="M2527.13 443.862C2527.13 430.566 2549.07 431.424 2549.07 443.862V445.149C2549.07 445.193 2549.07 445.237 2549.06 445.281C2548.87 455.013 2527.13 454.969 2527.13 445.149V443.862Z" fill="#FBFCF6"/>
<path d="M2773.06 467.881V539.937H2787.86V495.331L2791.43 492.757C2807.24 469.167 2836.84 472.599 2835.82 495.331V500.478V539.937H2853.17V495.331V492.757C2849.59 469.167 2821.53 448.58 2791.43 478.603L2787.86 480.748V467.881H2773.06Z" fill="#1E1E1E"/>
<path d="M2773.06 467.881V539.937H2787.86V495.331L2791.43 492.757C2807.24 469.167 2836.84 472.599 2835.82 495.331V500.478V539.937H2853.17V495.331V492.757C2849.59 469.167 2821.53 448.58 2791.43 478.603L2787.86 480.748V467.881H2773.06Z" fill="#FBFCF6"/>
<path d="M2436.3 486.324H2454.16V485.466C2453.48 467.52 2431.2 460.589 2407.73 466.594L2407.22 467.023C2389.87 470.025 2384.77 480.748 2387.83 492.757L2388.34 493.615C2397.11 503.959 2402.12 507.672 2411.3 508.198C2412.83 508.198 2441.92 506.482 2439.88 522.352C2435.79 534.79 2408.75 533.932 2401.61 522.352V521.494H2383.75V522.352C2389.36 546.8 2459.77 550.231 2458.75 522.352V521.065C2456.12 507.632 2449.38 503.346 2431.71 499.191L2429.67 498.762C2406.2 497.904 2399.57 484.608 2411.3 477.746L2412.32 476.888C2425.62 472.781 2437.83 477.746 2436.3 485.466V486.324Z" fill="#1E1E1E"/>
<path d="M2436.3 486.324H2454.16V485.466C2453.48 467.52 2431.2 460.589 2407.73 466.594L2407.22 467.023C2389.87 470.025 2384.77 480.748 2387.83 492.757L2388.34 493.615C2397.11 503.959 2402.12 507.672 2411.3 508.198C2412.83 508.198 2441.92 506.482 2439.88 522.352C2435.79 534.79 2408.75 533.932 2401.61 522.352V521.494H2383.75V522.352C2389.36 546.8 2459.77 550.231 2458.75 522.352V521.065C2456.12 507.632 2449.38 503.346 2431.71 499.191L2429.67 498.762C2406.2 497.904 2399.57 484.608 2411.3 477.746L2412.32 476.888C2425.62 472.781 2437.83 477.746 2436.3 485.466V486.324Z" fill="#FBFCF6"/>
<path fill-rule="evenodd" clip-rule="evenodd" d="M2069.45 438.715V539.937H2127.1H2129.65C2189.71 521.341 2168.94 438.715 2125.06 438.715H2123.53H2069.45ZM2120.47 449.867H2085.77V529.214H2123.02H2124.55C2175.06 506.911 2147.51 449.867 2121.49 449.867H2120.47Z" fill="#1E1E1E"/>
<path fill-rule="evenodd" clip-rule="evenodd" d="M2069.45 438.715V539.937H2127.1H2129.65C2189.71 521.341 2168.94 438.715 2125.06 438.715H2123.53H2069.45ZM2120.47 449.867H2085.77V529.214H2123.02H2124.55C2175.06 506.911 2147.51 449.867 2121.49 449.867H2120.47Z" fill="#FBFCF6"/>
<path fill-rule="evenodd" clip-rule="evenodd" d="M2253.64 507.34H2318.44H2319.46V502.193V499.191C2318.44 452.869 2235.78 449.009 2235.78 500.478V502.193C2235.78 512.916 2238.6 519.608 2243.44 527.499L2243.95 528.357C2260.78 550.231 2303.64 548.515 2319.46 524.925V524.067V521.923H2318.44H2303.64L2302.62 523.21C2285.79 539.079 2254.15 528.357 2253.64 509.485V507.34ZM2301.09 497.046H2253.64V492.328V491.471C2262.82 471.312 2295.99 470.883 2301.09 488.897V490.184V497.046Z" fill="#1E1E1E"/>
<path fill-rule="evenodd" clip-rule="evenodd" d="M2253.64 507.34H2318.44H2319.46V502.193V499.191C2318.44 452.869 2235.78 449.009 2235.78 500.478V502.193C2235.78 512.916 2238.6 519.608 2243.44 527.499L2243.95 528.357C2260.78 550.231 2303.64 548.515 2319.46 524.925V524.067V521.923H2318.44H2303.64L2302.62 523.21C2285.79 539.079 2254.15 528.357 2253.64 509.485V507.34ZM2301.09 497.046H2253.64V492.328V491.471C2262.82 471.312 2295.99 470.883 2301.09 488.897V490.184V497.046Z" fill="#FBFCF6"/>
<path fill-rule="evenodd" clip-rule="evenodd" d="M2621.52 528.357C2616.93 527.499 2622.01 517.049 2632.23 510.771L2631.21 509.485C2607.74 488.039 2637.34 455.871 2677.13 465.736H2707.75V476.03H2691.42V477.746C2704.93 497.226 2683.77 519.35 2664.89 516.347H2645.5L2644.48 516.776C2639.87 520.297 2640.39 521.957 2645.5 524.496L2664.89 525.354H2666.42C2691.93 530.501 2706.73 536.077 2701.12 555.807L2700.61 557.951C2693.15 573.223 2678.81 575.943 2638.87 572.534H2637.85C2612.85 567.387 2610.29 551.089 2625.6 534.361L2626.62 533.932V533.075C2626.3 530.746 2625.18 529.854 2622.03 528.785L2621.52 528.357ZM2638.87 488.468C2638.87 469.167 2677.13 468.739 2677.13 488.468V490.613C2677.13 511.2 2638.87 510.771 2638.87 490.613V488.468ZM2685.3 549.802C2684.28 566.1 2634.79 566.529 2634.79 549.802V548.515C2637.85 532.646 2686.32 539.508 2685.3 548.515V549.802Z" fill="#1E1E1E"/>
<path fill-rule="evenodd" clip-rule="evenodd" d="M2621.52 528.357C2616.93 527.499 2622.01 517.049 2632.23 510.771L2631.21 509.485C2607.74 488.039 2637.34 455.871 2677.13 465.736H2707.75V476.03H2691.42V477.746C2704.93 497.226 2683.77 519.35 2664.89 516.347H2645.5L2644.48 516.776C2639.87 520.297 2640.39 521.957 2645.5 524.496L2664.89 525.354H2666.42C2691.93 530.501 2706.73 536.077 2701.12 555.807L2700.61 557.951C2693.15 573.223 2678.81 575.943 2638.87 572.534H2637.85C2612.85 567.387 2610.29 551.089 2625.6 534.361L2626.62 533.932V533.075C2626.3 530.746 2625.18 529.854 2622.03 528.785L2621.52 528.357ZM2638.87 488.468C2638.87 469.167 2677.13 468.739 2677.13 488.468V490.613C2677.13 511.2 2638.87 510.771 2638.87 490.613V488.468ZM2685.3 549.802C2684.28 566.1 2634.79 566.529 2634.79 549.802V548.515C2637.85 532.646 2686.32 539.508 2685.3 548.515V549.802Z" fill="#FBFCF6"/>
<path d="M20.2084 346.5L6.57021 346.5H2892.45H2895.51C2915.92 346.5 2914.39 374.379 2895.51 374.379H2892.45H6.57021L20.2084 374.379C-6.32393 374.379 -5.81375 346.5 20.2084 346.5Z" fill="#1E1E1E"/>
<path d="M20.2084 346.5L6.57021 346.5H2892.45H2895.51C2915.92 346.5 2914.39 374.379 2895.51 374.379H2892.45H6.57021L20.2084 374.379C-6.32393 374.379 -5.81375 346.5 20.2084 346.5Z" fill="#F6CA69"/>
<path d="M20.2084 346.5C46.2305 346.5 6.57021 346.5 6.57021 346.5M20.2084 346.5C-5.81375 346.5 -6.32393 374.379 20.2084 374.379M20.2084 346.5L6.57021 346.5M6.57021 346.5H2892.45M20.2084 374.379C46.7407 374.379 6.57021 374.379 6.57021 374.379M20.2084 374.379L6.57021 374.379M6.57021 374.379H2892.45M2892.45 346.5C2892.45 346.5 2875.11 346.5 2895.51 346.5M2892.45 346.5H2895.51M2895.51 346.5C2915.92 346.5 2914.39 374.379 2895.51 374.379M2892.45 374.379C2892.45 374.379 2876.64 374.379 2895.51 374.379M2892.45 374.379H2895.51M2120.47 449.867H2085.77V529.214H2123.02H2124.55C2175.06 506.911 2147.51 449.867 2121.49 449.867M2120.47 449.867C2120.47 449.867 2095.47 449.867 2121.49 449.867M2120.47 449.867H2121.49M2123.53 438.715H2069.45V539.937H2127.1H2129.65C2189.71 521.341 2168.94 438.715 2125.06 438.715M2123.53 438.715C2123.53 438.715 2081.18 438.715 2125.06 438.715M2123.53 438.715H2125.06M2235.78 500.478C2235.78 449.009 2318.44 452.869 2319.46 499.191V502.193V507.34H2318.44H2253.64V509.485C2254.15 528.357 2285.79 539.079 2302.62 523.21L2303.64 521.923H2318.44H2319.46V524.067V524.925C2303.64 548.515 2260.78 550.231 2243.95 528.357L2243.44 527.499C2238.6 519.608 2235.78 512.916 2235.78 502.193M2235.78 500.478C2235.78 500.478 2235.78 491.471 2235.78 502.193M2235.78 500.478V502.193M2549.07 443.862C2549.07 431.424 2527.13 430.566 2527.13 443.862V445.149C2527.13 454.969 2548.87 455.013 2549.06 445.281M2549.07 443.862L2549.06 445.281M2549.07 443.862V445.149C2549.07 445.193 2549.07 445.237 2549.06 445.281M2253.64 497.046H2301.09V490.184V488.897C2295.99 470.883 2262.82 471.312 2253.64 491.471V492.328V497.046ZM2530.19 539.937H2547.54V467.881H2530.19V539.937ZM2773.06 539.937V467.881H2787.86V480.748L2791.43 478.603C2821.53 448.58 2849.59 469.167 2853.17 492.757V495.331V539.937H2835.82V500.478V495.331C2836.84 472.599 2807.24 469.167 2791.43 492.757L2787.86 495.331V539.937H2773.06ZM2454.16 486.324H2436.3V485.466C2437.83 477.746 2425.62 472.781 2412.32 476.888L2411.3 477.746C2399.57 484.608 2406.2 497.904 2429.67 498.762L2431.71 499.191C2449.38 503.346 2456.12 507.632 2458.75 521.065V522.352C2459.77 550.231 2389.36 546.8 2383.75 522.352V521.494H2401.61V522.352C2408.75 533.932 2435.79 534.79 2439.88 522.352C2441.92 506.482 2412.83 508.198 2411.3 508.198C2402.12 507.672 2397.11 503.959 2388.34 493.615L2387.83 492.757C2384.77 480.748 2389.87 470.025 2407.22 467.023L2407.73 466.594C2431.2 460.589 2453.48 467.52 2454.16 485.466V486.324ZM2638.87 490.613C2638.87 510.771 2677.13 511.2 2677.13 490.613V488.468C2677.13 468.739 2638.87 469.167 2638.87 488.468V490.613ZM2634.79 548.515C2637.85 532.646 2686.32 539.508 2685.3 548.515V549.802C2684.28 566.1 2634.79 566.529 2634.79 549.802V548.515ZM2632.23 510.771C2622.01 517.049 2616.93 527.499 2621.52 528.357L2622.03 528.785C2625.18 529.854 2626.3 530.746 2626.62 533.075V533.932L2625.6 534.361C2610.29 551.089 2612.85 567.387 2637.85 572.534H2638.87C2678.81 575.943 2693.15 573.223 2700.61 557.951L2701.12 555.807C2706.73 536.077 2691.93 530.501 2666.42 525.354H2664.89L2645.5 524.496C2640.39 521.957 2639.87 520.297 2644.48 516.776L2645.5 516.347H2664.89C2683.77 519.35 2704.93 497.226 2691.42 477.746V476.03H2707.75V465.736H2677.13C2637.34 455.871 2607.74 488.039 2631.21 509.485L2632.23 510.771Z" stroke="black"/>
</svg>
