<?xml version="1.0" standalone="no"?>
<!DOCTYPE svg PUBLIC "-//W3C//DTD SVG 20010904//EN"
 "http://www.w3.org/TR/2001/REC-SVG-20010904/DTD/svg10.dtd">
<svg version="1.0" xmlns="http://www.w3.org/2000/svg"
 width="3924.000000pt" height="1016.000000pt" viewBox="0 0 3924.000000 1016.000000"
 preserveAspectRatio="xMidYMid meet">

<g transform="translate(0.000000,1016.000000) scale(0.100000,-0.100000)"
fill="#000000" stroke="none">
<path d="M32003 7475 c0 -44 2 -61 4 -37 2 23 2 59 0 80 -2 20 -4 1 -4 -43z"/>
<path d="M23310 6810 c0 -6 17 -10 37 -10 43 0 41 5 -4 13 -19 4 -33 2 -33 -3z"/>
<path d="M23405 6800 c3 -5 13 -10 21 -10 8 0 12 5 9 10 -3 6 -13 10 -21 10
-8 0 -12 -4 -9 -10z"/>
<path d="M9350 6764 c0 -8 5 -12 10 -9 6 3 10 10 10 16 0 5 -4 9 -10 9 -5 0
-10 -7 -10 -16z"/>
<path d="M9425 6711 c-4 -7 -4 -15 0 -19 8 -8 181 -5 350 7 l120 8 -115 2
c-63 1 -167 4 -231 8 -86 4 -118 3 -124 -6z"/>
<path d="M23780 6710 c0 -6 8 -13 18 -17 9 -3 25 -13 34 -20 13 -12 21 -12 35
-3 16 10 15 10 -5 5 -16 -5 -22 -3 -20 7 2 7 -2 12 -9 11 -6 -1 -17 4 -23 12
-14 17 -30 20 -30 5z"/>
<path d="M15150 6698 c0 -6 20 -9 50 -6 28 1 50 0 50 -4 0 -5 7 -8 16 -8 8 0
12 4 9 10 -4 6 2 7 17 1 26 -9 376 -3 396 8 7 4 -112 8 -263 8 -184 1 -275 -2
-275 -9z"/>
<path d="M24321 6376 c2 -2 22 -6 44 -9 28 -5 34 -4 20 3 -19 8 -73 14 -64 6z"/>
<path d="M24478 6369 c-53 -13 127 -19 521 -18 297 1 406 4 381 11 -37 11
-861 17 -902 7z"/>
<path d="M25500 6376 c0 -2 7 -7 16 -10 8 -3 12 -2 9 4 -6 10 -25 14 -25 6z"/>
<path d="M9342 5859 c2 -7 21 -12 41 -11 20 0 274 1 565 2 308 1 512 6 492 10
-19 5 -275 9 -568 10 -409 0 -533 -2 -530 -11z"/>
<path d="M10493 5853 c9 -2 23 -2 30 0 6 3 -1 5 -18 5 -16 0 -22 -2 -12 -5z"/>
<path d="M12508 5853 c6 -2 18 -2 25 0 6 3 1 5 -13 5 -14 0 -19 -2 -12 -5z"/>
<path d="M16018 5853 c12 -2 32 -2 45 0 12 2 2 4 -23 4 -25 0 -35 -2 -22 -4z"/>
<path d="M16108 5853 c6 -2 18 -2 25 0 6 3 1 5 -13 5 -14 0 -19 -2 -12 -5z"/>
<path d="M17383 5853 c9 -2 23 -2 30 0 6 3 -1 5 -18 5 -16 0 -22 -2 -12 -5z"/>
<path d="M18223 5853 c9 -2 23 -2 30 0 6 3 -1 5 -18 5 -16 0 -22 -2 -12 -5z"/>
<path d="M9416 5785 c1 -11 3 -27 3 -35 1 -21 52 -20 68 0 9 12 58 16 285 20
309 6 262 19 -71 21 -102 0 -209 4 -237 8 -47 6 -50 6 -48 -14z"/>
<path d="M15195 5770 c3 -5 12 -7 20 -3 21 7 19 13 -6 13 -11 0 -18 -4 -14
-10z"/>
<path d="M15273 5773 c15 -2 39 -2 55 0 15 2 2 4 -28 4 -30 0 -43 -2 -27 -4z"/>
<path d="M15383 5773 c15 -2 39 -2 55 0 15 2 2 4 -28 4 -30 0 -43 -2 -27 -4z"/>
<path d="M5165 5640 l-230 -5 349 -7 c466 -10 898 -10 915 1 34 21 -362 26
-1034 11z"/>
<path d="M3116 5621 c-28 -4 -40 -11 -42 -25 -1 -10 -8 -22 -15 -27 -10 -6
-10 -11 0 -23 9 -11 10 -16 2 -16 -6 0 -11 -4 -11 -8 0 -5 7 -9 15 -9 8 0 12
4 9 8 -10 16 40 48 99 64 34 9 100 22 147 30 l85 13 -125 -1 c-69 0 -143 -3
-164 -6z"/>
<path d="M24005 5570 c-55 -4 -260 -10 -455 -14 -474 -9 -661 -16 -655 -27 3
-4 144 -9 313 -9 169 -1 323 -3 342 -5 19 -2 113 -4 208 -6 154 -2 198 -8 160
-22 -7 -2 1 -5 17 -5 63 -2 62 -2 59 -34 -3 -21 0 -29 9 -26 6 3 39 13 72 22
106 31 196 68 223 92 27 23 27 23 5 25 -22 1 -40 5 -45 8 -10 6 -171 7 -253 1z"/>
<path d="M26173 5440 c0 -47 2 -66 4 -42 2 23 2 61 0 85 -2 23 -4 4 -4 -43z"/>
<path d="M33485 5420 c64 -10 683 -10 755 0 30 4 -137 7 -375 7 -241 0 -408
-3 -380 -7z"/>
<path d="M34333 5423 c9 -2 25 -2 35 0 9 3 1 5 -18 5 -19 0 -27 -2 -17 -5z"/>
<path d="M34408 5423 c6 -2 18 -2 25 0 6 3 1 5 -13 5 -14 0 -19 -2 -12 -5z"/>
<path d="M16027 5373 c18 -2 50 -2 70 0 21 2 7 4 -32 4 -38 0 -55 -2 -38 -4z"/>
<path d="M16168 5373 c6 -2 18 -2 25 0 6 3 1 5 -13 5 -14 0 -19 -2 -12 -5z"/>
<path d="M19606 5234 c20 -24 37 -44 38 -44 1 0 2 9 2 19 0 11 -3 18 -7 16 -8
-6 -46 35 -39 43 3 3 -3 6 -12 8 -13 2 -8 -9 18 -42z"/>
<path d="M24725 5217 c-9 -19 -41 -64 -72 -99 -30 -34 -64 -76 -76 -93 l-22
-30 30 23 c17 13 49 42 73 63 23 22 46 38 50 35 9 -5 46 123 38 131 -2 3 -12
-11 -21 -30z"/>
<path d="M19665 5179 c-7 -10 145 -163 153 -154 4 4 -24 31 -77 75 -16 14 -30
30 -31 35 0 6 -9 17 -19 25 -11 7 -18 17 -15 22 3 4 3 8 0 8 -3 0 -8 -5 -11
-11z"/>
<path d="M24677 5008 c-8 -29 -36 -120 -62 -203 -47 -150 -69 -285 -47 -285
11 0 52 39 52 49 0 3 7 44 16 91 64 341 81 482 41 348z"/>
<path d="M19854 4992 c10 -12 23 -19 28 -16 11 7 11 7 -22 24 -25 13 -25 13
-6 -8z"/>
<path d="M19895 4971 c-10 -18 237 -183 355 -237 220 -102 397 -166 630 -228
131 -34 164 -40 156 -28 -3 6 6 5 21 -3 16 -7 64 -19 108 -25 44 -7 89 -14
100 -16 40 -7 322 -42 389 -48 l70 -7 -26 21 c-19 14 -41 20 -80 20 -47 1 -96
6 -243 26 -22 3 -52 6 -67 6 -15 1 -26 4 -23 8 2 3 -38 7 -89 7 -60 0 -104 6
-127 15 -41 19 -167 48 -204 48 -17 0 -24 4 -19 11 5 8 -1 10 -19 7 -15 -3
-24 -1 -21 3 3 5 -2 9 -11 9 -9 0 -13 -4 -10 -10 12 -19 -14 -10 -46 17 -20
18 -34 23 -36 16 -3 -9 -11 -9 -31 -1 -34 15 -54 32 -27 23 15 -5 17 -5 6 3
-10 7 -21 7 -33 1 -14 -7 -16 -6 -12 6 4 8 1 15 -5 15 -6 0 -11 -5 -11 -12 0
-7 -6 -5 -17 4 -21 18 -92 43 -110 40 -7 -2 -13 1 -13 6 0 6 -20 16 -44 23
-25 7 -43 17 -40 21 3 4 -1 5 -9 2 -8 -3 -21 2 -30 10 -9 10 -23 13 -33 9 -12
-4 -15 -3 -10 5 5 8 0 12 -13 12 -12 0 -21 5 -21 11 0 5 -4 8 -9 4 -5 -3 -12
-1 -15 4 -10 16 -80 48 -95 43 -8 -3 -11 0 -7 6 4 7 -3 14 -18 18 -13 3 -32
14 -42 25 -9 10 -22 19 -28 19 -6 0 -23 11 -38 25 -15 14 -29 25 -30 24 -8 -5
-67 39 -61 44 3 4 4 7 0 7 -3 0 -8 -4 -12 -9z"/>
<path d="M24495 4954 l-30 -26 33 22 c17 12 32 23 32 26 0 7 -4 5 -35 -22z"/>
<path d="M24429 4909 l-24 -20 28 17 c15 9 27 18 27 20 0 8 -8 4 -31 -17z"/>
<path d="M24175 4740 c-3 -6 1 -7 9 -4 18 7 21 14 7 14 -6 0 -13 -4 -16 -10z"/>
<path d="M32003 4640 c0 -30 2 -43 4 -27 2 15 2 39 0 55 -2 15 -4 2 -4 -28z"/>
<path d="M23528 4493 c7 -3 16 -2 19 1 4 3 -2 6 -13 5 -11 0 -14 -3 -6 -6z"/>
<path d="M32000 4474 c0 -12 82 -14 569 -14 313 0 576 3 585 6 54 21 -43 25
-575 24 -495 -1 -579 -3 -579 -16z"/>
<path d="M29555 4470 c-22 -4 69 -7 203 -8 133 -1 242 2 242 6 0 10 -387 11
-445 2z"/>
<path d="M30043 4473 c9 -2 23 -2 30 0 6 3 -1 5 -18 5 -16 0 -22 -2 -12 -5z"/>
<path d="M31160 4470 c-11 -7 10 -10 68 -10 46 0 81 4 78 8 -8 13 -128 14
-146 2z"/>
<path d="M37368 4475 c-2 -2 -70 -5 -151 -6 -81 -1 -150 -6 -153 -10 -3 -5 71
-9 165 -9 94 0 171 4 171 9 0 9 -25 22 -32 16z"/>
<path d="M29448 4463 c6 -2 18 -2 25 0 6 3 1 5 -13 5 -14 0 -19 -2 -12 -5z"/>
<path d="M36293 4453 c20 -2 54 -2 75 0 20 2 3 4 -38 4 -41 0 -58 -2 -37 -4z"/>
<path d="M36978 4453 c12 -2 32 -2 45 0 12 2 2 4 -23 4 -25 0 -35 -2 -22 -4z"/>
<path d="M21883 4373 c9 -2 23 -2 30 0 6 3 -1 5 -18 5 -16 0 -22 -2 -12 -5z"/>
<path d="M21968 4373 c6 -2 18 -2 25 0 6 3 1 5 -13 5 -14 0 -19 -2 -12 -5z"/>
<path d="M22208 4363 c6 -2 18 -2 25 0 6 3 1 5 -13 5 -14 0 -19 -2 -12 -5z"/>
<path d="M1260 3660 c8 -5 31 -9 50 -9 l35 1 -30 8 c-16 4 -39 8 -50 9 -16 1
-17 -1 -5 -9z"/>
</g>
</svg>
